<?xml version="1.0" encoding="utf-8"?>
<!-- Generator: Adobe Illustrator 23.0.1, SVG Export Plug-In . SVG Version: 6.00 Build 0)  -->
<svg version="1.1" id="Capa_1" xmlns="http://www.w3.org/2000/svg" xmlns:xlink="http://www.w3.org/1999/xlink" x="0px" y="0px"
	 viewBox="0 0 1136.4 238.7" style="enable-background:new 0 0 1136.4 238.7;" xml:space="preserve">
<style type="text/css">
	.st0{display:none;opacity:0.2;}
	.st1{display:inline;}
	.st2{clip-path:url(#SVGID_2_);}
	.st3{clip-path:url(#SVGID_4_);}
	.st4{fill:none;stroke:#000000;stroke-width:11.2745;stroke-miterlimit:10;}
	.st5{fill:none;stroke:#D7A003;stroke-width:10;stroke-miterlimit:10;}
</style>
<g class="st0">
	<g class="st1">
		<g>
			<g>
				<defs>
					<rect id="SVGID_1_" x="337.6" y="-26" width="464" height="329.9"/>
				</defs>
				<clipPath id="SVGID_2_">
					<use xlink:href="#SVGID_1_"  style="overflow:visible;"/>
				</clipPath>
				<path class="st2" d="M375-11c-12.4,0-22.4,10-22.4,22.4v255.1c0,12.4,10.1,22.4,22.4,22.4h389.2c12.4,0,22.4-10.1,22.4-22.4
					V11.4C786.6-1,776.5-11,764.2-11C764.2-11,375-11,375-11z M764.2,303.9H375c-20.6,0-37.4-16.8-37.4-37.4V11.4
					C337.6-9.2,354.4-26,375-26h389.2c20.6,0,37.4,16.8,37.4,37.4v255.1C801.6,287.1,784.8,303.9,764.2,303.9"/>
			</g>
		</g>
	</g>
	<g class="st1">
		<g>
			<g>
				<defs>
					<rect id="SVGID_3_" x="337.6" y="-26" width="464" height="329.9"/>
				</defs>
				<clipPath id="SVGID_4_">
					<use xlink:href="#SVGID_3_"  style="overflow:visible;"/>
				</clipPath>
				<path class="st3" d="M569.6,176.5c-10,0-19.9-3.3-27.5-9.9L350-1c-3.1-2.7-3.4-7.4-0.7-10.6c2.7-3.1,7.4-3.4,10.6-0.7L552,155.3
					c9.6,8.3,25.7,8.3,35.3,0L779.2-12c3.1-2.7,7.8-2.4,10.6,0.7c2.7,3.1,2.4,7.8-0.7,10.6l-192,167.3
					C589.5,173.2,579.5,176.5,569.6,176.5"/>
			</g>
		</g>
	</g>
</g>
<g>
	<rect x="437.4" y="27.6" class="st4" width="261.6" height="185.4"/>
	<polyline class="st4" points="437.4,27.6 568.2,147.8 699,27.6 	"/>
</g>
<line class="st5" x1="740.9" y1="124.3" x2="1092.7" y2="124.3"/>
<line class="st5" x1="43.7" y1="124.3" x2="395.5" y2="124.3"/>
</svg>
