<?xml version="1.0" encoding="utf-8"?>
<!-- Generator: Adobe Illustrator 23.0.1, SVG Export Plug-In . SVG Version: 6.00 Build 0)  -->
<svg version="1.1" id="Capa_1" xmlns="http://www.w3.org/2000/svg" xmlns:xlink="http://www.w3.org/1999/xlink" x="0px" y="0px"
	 viewBox="0 0 477.2 375.6" style="enable-background:new 0 0 477.2 375.6;" xml:space="preserve">
<style type="text/css">
	.st0{display:none;opacity:0.2;}
	.st1{display:inline;}
	.st2{clip-path:url(#SVGID_2_);}
	.st3{clip-path:url(#SVGID_4_);}
	.st4{fill:none;stroke:#000000;stroke-width:19.2081;stroke-miterlimit:10;}
</style>
<g class="st0">
	<g class="st1">
		<g>
			<g>
				<defs>
					<rect id="SVGID_1_" x="8" y="42.4" width="464" height="329.9"/>
				</defs>
				<clipPath id="SVGID_2_">
					<use xlink:href="#SVGID_1_"  style="overflow:visible;"/>
				</clipPath>
				<path class="st2" d="M45.4,57.4C33,57.4,23,67.4,23,79.8v255.1c0,12.4,10.1,22.4,22.4,22.4h389.2c12.4,0,22.4-10.1,22.4-22.4
					V79.8c0-12.4-10.1-22.4-22.4-22.4C434.6,57.4,45.4,57.4,45.4,57.4z M434.6,372.3H45.4C24.8,372.3,8,355.5,8,334.9V79.8
					c0-20.6,16.8-37.4,37.4-37.4h389.2c20.6,0,37.4,16.8,37.4,37.4v255.1C472,355.5,455.2,372.3,434.6,372.3"/>
			</g>
		</g>
	</g>
	<g class="st1">
		<g>
			<g>
				<defs>
					<rect id="SVGID_3_" x="8" y="42.4" width="464" height="329.9"/>
				</defs>
				<clipPath id="SVGID_4_">
					<use xlink:href="#SVGID_3_"  style="overflow:visible;"/>
				</clipPath>
				<path class="st3" d="M240,244.9c-10,0-19.9-3.3-27.5-9.9L20.4,67.4c-3.1-2.7-3.4-7.4-0.7-10.6c2.7-3.1,7.4-3.4,10.6-0.7
					l192.1,167.6c9.6,8.3,25.7,8.3,35.3,0L449.6,56.4c3.1-2.7,7.8-2.4,10.6,0.7c2.7,3.1,2.4,7.8-0.7,10.6L267.5,235
					C259.9,241.6,249.9,244.9,240,244.9"/>
			</g>
		</g>
	</g>
</g>
<g>
	<rect x="15.8" y="34.9" class="st4" width="445.6" height="315.8"/>
	<polyline class="st4" points="15.8,34.9 238.6,239.5 461.4,34.9 	"/>
</g>
</svg>
